<svg width="800" height="600" viewBox="0 0 800 600" xmlns="http://www.w3.org/2000/svg">
  <!-- Background gradient -->
  <defs>
    <linearGradient id="bg-gradient" x1="0%" y1="0%" x2="100%" y2="100%">
      <stop offset="0%" stop-color="#0070f3" stop-opacity="0.1"/>
      <stop offset="100%" stop-color="#0070f3" stop-opacity="0.3"/>
    </linearGradient>
  </defs>
  
  <!-- Background -->
  <rect width="800" height="600" fill="url(#bg-gradient)" rx="20" ry="20"/>
  
  <!-- Next.js Logo -->
  <g transform="translate(250, 150)" fill="#000000">
    <path d="M120.81 80.561h96.568v7.676h-87.716v57.767h82.486v7.675h-82.486v63.423h88.722v7.675H120.81V80.561zm105.22 0h10.26l45.467 63.423L328.23 80.56h10.26v136.54h-8.825V96.499L283.467 159.45l-46.25-62.951v120.6h-8.824V80.56h-2.364zm180.716 9.006v7.675h-53.482v119.86h-8.824v-119.86h-53.48v-7.675h115.786zm78.586 16.016c22.65 0 42.184 8.294 55.205 24.033 13.02 15.74 19.53 36.33 19.53 61.773 0 26.6-6.51 47.553-19.53 62.866-13.02 15.313-32.555 22.97-58.603 22.97-24.57 0-44.263-7.657-59.077-22.97-14.814-15.313-22.22-36.266-22.22-62.866 0-26.738 7.406-47.32 22.22-61.773 14.814-14.452 34.507-21.678 62.476-21.678v-2.355zm-2.112 7.675c-21.036 0-38.228 6.327-51.577 18.981-13.35 12.654-20.023 31.012-20.023 55.073 0 24.061 6.673 42.812 20.023 56.254 13.349 13.442 30.541 20.163 51.577 20.163 21.035 0 38.22-6.663 51.555-19.99 13.335-13.327 20.003-32.107 20.003-56.34 0-24.232-6.668-42.656-20.003-55.269-13.335-12.613-30.52-18.872-51.555-18.872z"/>
  </g>
  
  <!-- Decorative Elements -->
  <g fill="#0070f3">
    <!-- Circles -->
    <circle cx="100" cy="100" r="20" opacity="0.7"/>
    <circle cx="150" cy="400" r="30" opacity="0.5"/>
    <circle cx="700" cy="200" r="25" opacity="0.6"/>
    <circle cx="650" cy="500" r="15" opacity="0.8"/>
    
    <!-- Code brackets -->
    <path d="M50,300 L100,250 L90,240 L30,300 L90,360 L100,350 Z" opacity="0.7"/>
    <path d="M750,300 L700,250 L710,240 L770,300 L710,360 L700,350 Z" opacity="0.7"/>
  </g>
  
  <!-- Text -->
  <text x="400" y="450" font-family="Arial, sans-serif" font-size="24" font-weight="bold" text-anchor="middle" fill="#333">
    Next.js Expert Academy
  </text>
</svg>